<?xml version="1.0" standalone="no"?><!-- Generator: Gravit.io --><svg xmlns="http://www.w3.org/2000/svg" xmlns:xlink="http://www.w3.org/1999/xlink" style="isolation:isolate" viewBox="0 0 130 130" width="130" height="130"><circle vector-effect="non-scaling-stroke" cx="0" cy="0" r="1" fill="rgb(248,248,248)" transform="matrix(65,0,0,65,65,65)" stroke-width="1" stroke="rgb(36,44,136)" stroke-opacity="0"/><circle vector-effect="non-scaling-stroke" cx="0" cy="0" r="1" fill="rgb(255,87,81)" transform="matrix(36.69113108327762,0,0,36.98057186248219,61.69113108327761,67.99582277517848)" stroke-width="1" stroke="rgb(36,44,136)"/><path d=" M 98.38226216655522 72.43349139867635 Q 97.0394109361832 70.25615023393988 94.35290486662208 70.21465708692742 Q 91.66639879706096 70.17316393991494 90.32354756668894 72.43349139867634 L 68.29553467826759 96.84066882791458 L 61.69113108327761 97.58028026516423 Q 58.62750491518229 98.36235641864586 58.7558405966154 101.27833745141245 Q 58.88417627804851 104.19431848417905 61.69113108327761 104.97639463766065 Q 73.53224882065105 105.46595279304418 85.92307692307693 95.80242860815697 Q 94.95884646289798 88.75549221655027 98.38226216655522 72.43349139867635 Z " fill="rgb(212,79,92)" stroke-width="1" stroke="rgb(36,44,136)" stroke-opacity="0" stroke-linejoin="miter" stroke-linecap="square"/><path d=" M 25.733822621665553 63.218709699692745 Q 27.076692327298147 65.39603928942444 29.76319874884122 65.43750927965831 Q 32.44970517038432 65.47897926989219 33.79253722123711 63.21864023628832 L 55.82034300756397 38.81127293389399 L 62.424740326515796 38.071604568937786 Q 65.4883598583782 37.2895020080595 65.35999943408748 34.37352208160986 Q 65.23163900979677 31.45754215516024 62.42495370494316 31.015250912696274 Q 49.49682115298823 30.597289504565666 38.942629811645496 39.15097672244235 Q 26.733146117138375 49.04620234768599 25.733822621665553 63.218709699692745 Z " fill="rgb(255,120,115)" stroke-width="1" stroke="rgb(36,44,136)" stroke-opacity="0" stroke-linejoin="miter" stroke-linecap="square"/><circle vector-effect="non-scaling-stroke" cx="0" cy="0" r="1" fill="rgb(255,255,255)" transform="matrix(29.35290486662209,0,0,29.584457489985752,61.69113108327761,67.99582277517851)" stroke-width="1" stroke="rgb(36,44,136)"/><circle vector-effect="non-scaling-stroke" cx="0" cy="0" r="1" fill="rgb(255,87,81)" transform="matrix(22.014678649966566,0,0,22.188343117489314,62.424953704943164,67.99582277517851)" stroke-width="1" stroke="rgb(36,44,136)"/><circle vector-effect="non-scaling-stroke" cx="0" cy="0" r="1" fill="rgb(255,255,255)" transform="matrix(14.676452433311049,0,0,14.792228744992878,61.69113108327761,67.99582277517848)" stroke-width="1" stroke="rgb(36,44,136)"/><circle vector-effect="non-scaling-stroke" cx="0" cy="0" r="1" fill="rgb(255,87,81)" transform="matrix(7.338226216655524,0,0,7.396114372496439,61.69113108327761,67.99582277517848)" stroke-width="1" stroke="rgb(36,44,136)"/><circle vector-effect="non-scaling-stroke" cx="0" cy="0" r="1" fill="rgb(255,87,81)" fill-opacity="0" transform="matrix(36.69113108327762,0,0,36.98057186248219,61.69113108327761,67.99582277517848)" stroke-width="1" stroke="rgb(36,44,136)"/><path d=" M 60.95730846161206 68.73543421242813 Q 60.5541195794531 68.32537299633259 60.97064270006686 67.25621133792885 L 87.38825708002676 41.369811034191315 L 86.65443445836121 33.97369666169487 L 96.19412854001337 25.09835941469915 L 96.92795116167895 33.23408522444523 L 105 33.97369666169487 L 96.19412854001337 43.588645345940236 L 88.85590232335784 42.8490339086906 L 62.424953704943164 68.73543421242813 Q 61.36048070405468 69.14547850518423 60.95730846161206 68.73543421242813 Z " fill="rgb(36,44,136)" stroke-width="1" stroke="rgb(36,44,136)" stroke-opacity="0" stroke-linejoin="miter" stroke-linecap="square"/><path d=" M 91.77785857156529 31.0152509126963 L 91.77785857156529 36.93214241069345 L 95.44697167989305 33.23408522444523 L 95.43363744143828 27.31719372644808 L 91.77785857156529 31.0152509126963 Z " fill="rgb(131,214,137)" stroke-width="1" stroke="rgb(36,44,136)" stroke-opacity="0" stroke-linejoin="miter" stroke-linecap="square"/><path d=" M 89.58972494502339 42.10942247144095 L 93.97932643656193 37.671753847943094 L 99.86324164834113 37.671753847943094 L 95.46030591834776 42.84903390869059 L 89.58972494502339 42.10942247144095 Z " fill="rgb(112,181,137)" stroke-width="1" stroke="rgb(36,44,136)" stroke-opacity="0" stroke-linejoin="miter" stroke-linecap="square"/><path d=" M 94.71314905822749 36.93214241069345 L 96.91461692322412 34.713308098944516 L 102.05137527488299 35.45291953619416 L 100.58373003155188 36.93214241069345 L 94.71314905822749 36.93214241069345 Z " fill="rgb(112,181,137)" stroke-width="1" stroke="rgb(36,44,136)" stroke-opacity="0" stroke-linejoin="miter" stroke-linecap="square"/><path d=" M 90.32354756668894 38.41136528519274 L 88.84256808490306 33.23408522444523 L 87.37492284157196 34.713308098944516 L 88.12207970169229 40.630199596941665 L 90.32354756668894 38.41136528519274 Z " fill="rgb(131,214,137)" stroke-width="1" stroke="rgb(36,44,136)" stroke-opacity="0" stroke-linejoin="miter" stroke-linecap="square"/><path d=" M 91.0573701883545 31.0152509126963 L 89.58972494502339 32.49447378719559 L 90.32354756668897 35.45291953619416 L 91.0573701883545 31.0152509126963 Z " fill="rgb(131,214,137)" stroke-width="1" stroke="rgb(36,44,136)" stroke-opacity="0" stroke-linejoin="miter" stroke-linecap="square"/><path d=" M 87.37492284157196 31.0152509126963 Q 87.57732643293363 31.226802136664457 88.12207970169229 31.0152509126963 L 93.99266067501671 25.837970851948796 Q 94.18550998681008 25.298752038037357 93.97932643656193 25.09835941469915 Q 93.77692284520026 24.901640585300676 93.25883805335116 25.09835941469915 L 87.38825708002676 30.27563947544666 Q 87.17609865793395 30.807440867824475 87.37492284157196 31.0152509126963 Z " fill="rgb(36,44,136)" stroke-width="1" stroke="rgb(36,44,136)" stroke-opacity="0" stroke-linejoin="miter" stroke-linecap="square"/><path d=" M 62.424953704943164 63.558154151680625 Q 62.62745757188624 63.76225548578564 63.15877632660872 63.558154151680625 L 68.29553467826759 58.380874090933105 Q 68.49803854521065 57.84536398778849 68.29553467826759 57.64126265368347 Q 68.0930308113245 57.43716131957846 67.56171205660203 57.64126265368347 L 67.56171205660203 57.64126265368347 L 62.424953704943164 62.818542714430976 Q 62.22244983800009 63.35405281757561 62.424953704943164 63.558154151680625 Z " fill="rgb(36,44,136)" stroke-width="1" stroke="rgb(36,44,136)" stroke-opacity="0" stroke-linejoin="miter" stroke-linecap="square"/><path d=" M 76.36758351658867 59.860096965432405 Q 76.16507964964558 59.655995631327386 76.36758351658867 59.12048552818276 L 87.38825708002673 48.02631396943811 Q 87.90634187187582 47.82959514003963 88.1087454632375 48.02631396943811 Q 88.31492901348565 48.22670659277631 88.12207970169227 48.76592540668774 C 80.32785001227796 56.270130670145235 77.14350723890897 59.96818785639346 77.10140613825422 59.860096965432405 Q 76.57008738353173 60.064198299537416 76.36758351658867 59.860096965432405 Z " fill="rgb(255,255,255)" stroke-width="1" stroke="rgb(36,44,136)" stroke-opacity="0" stroke-linejoin="miter" stroke-linecap="square"/></svg>