<?xml version="1.0" standalone="no"?><!-- Generator: Gravit.io --><svg xmlns="http://www.w3.org/2000/svg" xmlns:xlink="http://www.w3.org/1999/xlink" style="isolation:isolate" viewBox="280 0 130 130" width="130" height="130"><circle vector-effect="non-scaling-stroke" cx="0" cy="0" r="1" fill="rgb(248,248,248)" transform="matrix(65,0,0,65,345,65)" stroke-width="1" stroke="rgb(36,44,136)" stroke-opacity="0"/><rect rx="4.0225967393434985" ry="4.0225967393434985" x="305.38696758404495" y="24.75493348280378" width="80.61303241595499" height="80.49013303439244" transform="matrix(1,0,0,1,0,0)" fill="rgb(255,255,255)" stroke-width="1" stroke="rgb(36,44,136)" stroke-linejoin="miter" stroke-linecap="square"/><line x1="313.14726296647495" y1="75.95502279575109" x2="378.4611949011776" y2="75.95502279575109" stroke-width="1" stroke="rgb(36,44,136)" stroke-linejoin="miter" stroke-linecap="square"/><line x1="313.153523749298" y1="83.34827851771618" x2="329.5708773088314" y2="83.34827851771618" stroke-width="1" stroke="rgb(36,44,136)" stroke-linejoin="miter" stroke-linecap="square"/><line x1="334.74491415180137" y1="83.31232690039911" x2="351.1622677113348" y2="83.31232690039911" stroke-width="1" stroke="rgb(36,44,136)" stroke-linejoin="miter" stroke-linecap="square"/><line x1="356.68319779981704" y1="83.28348028811064" x2="378.6214814478328" y2="83.28348028811064" stroke-width="1" stroke="rgb(36,44,136)" stroke-linejoin="miter" stroke-linecap="square"/><line x1="313.14726296647484" y1="90.48532619832037" x2="378.5795535810763" y2="90.48532619832035" stroke-width="1" stroke="rgb(36,44,136)" stroke-linejoin="miter" stroke-linecap="square"/><line x1="313.1551325259461" y1="97.87858192028546" x2="378.4611949011776" y2="97.87858192028544" stroke-width="1" stroke="rgb(36,44,136)" stroke-linejoin="miter" stroke-linecap="square"/><rect x="312.7154250764045" y="46.80283592335419" width="65.95611743123595" height="21.92355912453437" transform="matrix(1,0,0,1,0,0)" fill="rgb(142,195,206)" stroke-width="1" stroke="rgb(36,44,136)" stroke-linejoin="miter" stroke-linecap="square"/><rect rx="7.105427357601002e-15" ry="7.105427357601002e-15" x="305.3869675840449" y="24.754933482803786" width="80.6130324159551" height="14.557801851149549" transform="matrix(1,0,0,1,0,0)" fill="rgb(185,185,185)" stroke-width="1" stroke="rgb(36,44,136)" stroke-linejoin="miter" stroke-linecap="square"/><circle vector-effect="non-scaling-stroke" cx="0" cy="0" r="1" fill="rgb(255,87,81)" transform="matrix(3.297805871561798,0,0,3.2978058715617977,311.6161564525505,31.8910337453299)" stroke-width="1" stroke="rgb(36,44,136)"/><circle vector-effect="non-scaling-stroke" cx="0" cy="0" r="1" fill="rgb(242,216,86)" transform="matrix(3.297805871561798,0,0,3.2978058715617977,321.143151192618,31.8910337453299)" stroke-width="1" stroke="rgb(36,44,136)"/><circle vector-effect="non-scaling-stroke" cx="0" cy="0" r="1" fill="rgb(112,181,137)" transform="matrix(3.297805871561798,0,0,3.2978058715617977,330.6701459326854,31.8910337453299)" stroke-width="1" stroke="rgb(36,44,136)"/><rect rx="5.219094392671309" ry="5.219094392671309" x="338.36502629966293" y="28.32004909541401" width="41.77220770644942" height="6.868790521477688" transform="matrix(1,0,0,1,0,0)" fill="rgb(255,255,255)" stroke-width="1" stroke="rgb(36,44,136)" stroke-linejoin="miter" stroke-linecap="square"/></svg>