<?xml version="1.0" standalone="no"?><!-- Generator: Gravit.io --><svg xmlns="http://www.w3.org/2000/svg" xmlns:xlink="http://www.w3.org/1999/xlink" style="isolation:isolate" viewBox="140 0 130 130" width="130" height="130"><circle vector-effect="non-scaling-stroke" cx="0" cy="0" r="1" fill="rgb(248,248,248)" transform="matrix(65,0,0,65,205,65)" stroke-width="1" stroke="rgb(36,44,136)" stroke-opacity="0"/><path d=" M 164.8744669394423 75.9551669201708 L 245.12553306055773 75.9551669201708 L 245.12553306055773 81.06205294605996 L 244.39597791400212 82.52116323917113 L 242.93686762089092 83.25071838572674 L 167.79268752566466 83.25071838572674 L 167.06313237910908 83.25071838572674 L 165.60402208599788 82.52116323917113 L 164.87446693944227 81.06205294605995 L 164.8744669394423 75.9551669201708 Z " fill="rgb(232,232,232)" stroke-width="1" stroke="rgb(36,44,136)" stroke-opacity="0" stroke-linejoin="miter" stroke-linecap="square"/><path d=" M 167.7926875256647 24.984974759937455 L 166.33357723255352 25.61586180783477 L 164.87446693944233 26.34541695439036 L 164.87446693944236 29.99319268716833 L 164.87446693944227 75.9551669201708 L 245.12553306055773 75.9551669201708 L 245.12553306055773 27.210772498236995 L 244.39597791400212 25.726907339370634 L 242.93686762089092 24.984974759937455 L 167.7926875256647 24.984974759937455 Z " fill="rgb(185,185,185)" stroke-width="1" stroke="rgba(0,0,0,0)" stroke-linejoin="miter" stroke-linecap="square"/><rect x="167.7926875256647" y="27.210772498237002" width="74.41462494867062" height="45.257887345423924" transform="matrix(1,0,0,1,0,0)" fill="rgb(255,87,81)" stroke-width="1" stroke="rgb(36,44,136)" stroke-linejoin="miter" stroke-linecap="square"/><circle vector-effect="non-scaling-stroke" cx="0" cy="0" r="1" fill="rgb(36,44,136)" transform="matrix(2.1886654396667837,0,0,2.1886654396667837,205,79.60294265294877)" stroke-width="1" stroke="rgb(36,44,136)"/><rect x="198.43400368099967" y="83.25071838572673" width="13.131992638000668" height="19.69798895700106" transform="matrix(1,0,0,1,0,0)" fill="rgb(162,162,162)" stroke-width="1" stroke="rgb(36,44,136)" stroke-linejoin="miter" stroke-linecap="square"/><path d=" M 211.56599631900036 89.08715955817149 Q 208.86417500810617 88.75400852888933 207.1886654396668 89.08715955817149 C 201.0308670018019 90.31154939534662 206.28385968204586 99.31275119767679 198.43400368099964 102.58392976945001 L 211.56599631900036 102.58392976945001 L 211.56599631900036 89.08715955817149 Z " fill="rgb(142,142,142)" fill-opacity="0.5" stroke-width="1" stroke="rgb(36,44,136)" stroke-opacity="0" stroke-linejoin="miter" stroke-linecap="square"/><rect x="198.43400368099967" y="83.25071838572673" width="13.131992638000668" height="19.69798895700106" transform="matrix(1,0,0,1,0,0)" fill="rgb(162,162,162)" fill-opacity="0" stroke-width="1" stroke="rgb(36,44,136)" stroke-linejoin="miter" stroke-linecap="square"/><path d=" M 172.17001840499825 32.404300554269255 L 237.82998159500175 32.404300554269255 L 237.82998159500175 39.47740959239107 L 172.17001840499825 39.47740959239107 L 172.17001840499825 32.404300554269255 Z " fill="rgb(255,120,115)" stroke-width="1" stroke="rgb(36,44,136)" stroke-opacity="0" stroke-linejoin="miter" stroke-linecap="square"/><path d=" M 172.17001840499825 43.533289245766944 L 194.4214503749439 43.533289245766944 L 194.4214503749439 44.58429561828023 L 172.17001840499825 44.58429561828023 L 172.17001840499825 43.533289245766944 Z " fill="rgb(112,181,137)" stroke-width="1" stroke="rgb(36,44,136)" stroke-opacity="0" stroke-linejoin="miter" stroke-linecap="square"/><path d=" M 172.17001840499825 46.933878349852726 L 194.4214503749439 46.933878349852726 L 194.4214503749439 47.98488472236601 L 172.17001840499825 47.98488472236601 L 172.17001840499825 46.933878349852726 Z " fill="rgb(255,120,115)" stroke-width="1" stroke="rgb(36,44,136)" stroke-opacity="0" stroke-linejoin="miter" stroke-linecap="square"/><path d=" M 172.17001840499825 49.69118164416938 L 194.4214503749439 49.69118164416938 L 194.4214503749439 50.74218801668267 L 172.17001840499825 50.74218801668267 L 172.17001840499825 49.69118164416938 Z " fill="rgb(255,120,115)" stroke-width="1" stroke="rgb(36,44,136)" stroke-opacity="0" stroke-linejoin="miter" stroke-linecap="square"/><path d=" M 195.51578309477725 43.533289245766944 L 217.7672150647229 43.533289245766944 L 217.7672150647229 44.58429561828023 L 195.51578309477725 44.58429561828023 L 195.51578309477725 43.533289245766944 Z " fill="rgb(255,120,115)" stroke-width="1" stroke="rgb(36,44,136)" stroke-opacity="0" stroke-linejoin="miter" stroke-linecap="square"/><path d=" M 195.51578309477725 46.93387834985274 L 217.7672150647229 46.93387834985274 L 217.7672150647229 47.984884722366026 L 195.51578309477725 47.984884722366026 L 195.51578309477725 46.93387834985274 Z " fill="rgb(255,120,115)" stroke-width="1" stroke="rgb(36,44,136)" stroke-opacity="0" stroke-linejoin="miter" stroke-linecap="square"/><path d=" M 195.51578309477725 49.69118164416938 L 217.7672150647229 49.69118164416938 L 217.7672150647229 50.74218801668267 L 195.51578309477725 50.74218801668267 L 195.51578309477725 49.69118164416938 Z " fill="rgb(255,120,115)" stroke-width="1" stroke="rgb(36,44,136)" stroke-opacity="0" stroke-linejoin="miter" stroke-linecap="square"/><path d=" M 172.17001840499825 51.90497464294797 L 194.4214503749439 51.90497464294797 L 194.4214503749439 52.955981015461255 L 172.17001840499825 52.955981015461255 L 172.17001840499825 51.90497464294797 Z " fill="rgb(255,120,115)" stroke-width="1" stroke="rgb(36,44,136)" stroke-opacity="0" stroke-linejoin="miter" stroke-linecap="square"/><path d=" M 172.17001840499825 55.305563747033766 L 194.4214503749439 55.305563747033766 L 194.4214503749439 56.35657011954705 L 172.17001840499825 56.35657011954705 L 172.17001840499825 55.305563747033766 Z " fill="rgb(255,120,115)" stroke-width="1" stroke="rgb(36,44,136)" stroke-opacity="0" stroke-linejoin="miter" stroke-linecap="square"/><path d=" M 172.17001840499825 58.06286704135042 L 194.4214503749439 58.06286704135042 L 194.4214503749439 59.11387341386371 L 172.17001840499825 59.11387341386371 L 172.17001840499825 58.06286704135042 Z " fill="rgb(255,120,115)" stroke-width="1" stroke="rgb(36,44,136)" stroke-opacity="0" stroke-linejoin="miter" stroke-linecap="square"/><path d=" M 195.51578309477725 51.90497464294797 L 217.7672150647229 51.90497464294797 L 217.7672150647229 52.955981015461255 L 195.51578309477725 52.955981015461255 L 195.51578309477725 51.90497464294797 Z " fill="rgb(112,181,137)" stroke-width="1" stroke="rgb(36,44,136)" stroke-opacity="0" stroke-linejoin="miter" stroke-linecap="square"/><path d=" M 195.51578309477725 55.305563747033766 L 217.7672150647229 55.305563747033766 L 217.7672150647229 56.35657011954705 L 195.51578309477725 56.35657011954705 L 195.51578309477725 55.305563747033766 Z " fill="rgb(255,120,115)" stroke-width="1" stroke="rgb(36,44,136)" stroke-opacity="0" stroke-linejoin="miter" stroke-linecap="square"/><path d=" M 195.51578309477725 58.06286704135042 L 217.7672150647229 58.06286704135042 L 217.7672150647229 59.11387341386371 L 195.51578309477725 59.11387341386371 L 195.51578309477725 58.06286704135042 Z " fill="rgb(255,120,115)" stroke-width="1" stroke="rgb(36,44,136)" stroke-opacity="0" stroke-linejoin="miter" stroke-linecap="square"/><path d=" M 220.3206580776675 43.53328924576694 L 237.82998159500178 43.53328924576694 L 237.82998159500178 59.85580599329688 L 220.3206580776675 59.85580599329688 L 220.3206580776675 43.53328924576694 Z " fill="rgb(255,120,115)" stroke-width="1" stroke="rgb(36,44,136)" stroke-opacity="0" stroke-linejoin="miter" stroke-linecap="square"/><path d=" M 172.17001840499825 61.364063989058906 L 194.4214503749439 61.364063989058906 L 194.4214503749439 68.75899694649505 L 172.17001840499825 68.75899694649505 L 172.17001840499825 61.364063989058906 Z " fill="rgb(212,79,92)" stroke-width="1" stroke="rgb(36,44,136)" stroke-opacity="0" stroke-linejoin="miter" stroke-linecap="square"/><path d=" M 164.87446693944236 75.9551669201708 Q 215.93985225955925 60.09839814489223 243.66642276744653 24.88630666127917 L 245.12553306055773 27.074972100945956 L 245.12553306055773 75.9551669201708 L 164.87446693944236 75.9551669201708 Z " fill="rgb(126,125,125)" fill-opacity="0.3" stroke-width="1" stroke="rgb(36,44,136)" stroke-opacity="0" stroke-linejoin="miter" stroke-linecap="square"/><rect x="167.7926875256647" y="27.210772498237002" width="74.41462494867062" height="45.257887345423924" transform="matrix(1,0,0,1,0,0)" fill="rgb(255,87,81)" fill-opacity="0" stroke-width="1" stroke="rgb(36,44,136)" stroke-linejoin="miter" stroke-linecap="square"/><line x1="164.8744669394423" y1="75.9551669201708" x2="245.12553306055773" y2="75.9551669201708" stroke-width="1" stroke="rgb(36,44,136)" stroke-linejoin="miter" stroke-linecap="square"/><rect rx="3.616576927150959" ry="3.616576927150959" x="164.8744669394423" y="24.984974759937458" width="80.2510661211154" height="58.265743625789284" transform="matrix(1,0,0,1,0,0)" fill="rgb(235,235,235)" fill-opacity="0" stroke-width="1" stroke="rgb(36,44,136)" stroke-linejoin="miter" stroke-linecap="square"/><rect x="194.05667280166608" y="102.94870734272781" width="21.886654396667836" height="2.164985995993021" transform="matrix(1,0,0,1,0,0)" fill="rgb(232,232,232)" stroke-width="1" stroke="rgb(36,44,136)" stroke-linejoin="miter" stroke-linecap="square"/></svg>